<?xml version="1.0" encoding="iso-8859-1"?>
<!-- Uploaded to: SVG Repo, www.svgrepo.com, Generator: SVG Repo Mixer Tools -->
<svg version="1.1" id="Layer_1" xmlns="http://www.w3.org/2000/svg" xmlns:xlink="http://www.w3.org/1999/xlink" 
	 viewBox="0 0 451.296 451.296" xml:space="preserve">
<circle style="fill:#45B39C;" cx="225.648" cy="225.638" r="225.638"/>
<path style="opacity:0.1;enable-background:new    ;" d="M450.855,239.322l-99.451-99.451c-0.076-0.08-0.13-0.176-0.209-0.255
	l-39.537-39.491c-2.398-2.398-5.641-3.76-9.026-3.76H109.178c-7.052,0-12.834,5.735-12.834,12.834v232.898
	c0,3.672,1.566,6.958,4.035,9.295l98.236,98.236c8.87,1.06,17.878,1.668,27.034,1.668
	C345.677,451.296,443.775,357.572,450.855,239.322z"/>
<path style="fill:#64798A;" d="M351.176,139.612l-39.501-39.501c-2.405-2.404-5.665-3.755-9.066-3.755H109.186
	c-7.081,0-12.821,5.74-12.821,12.821V342.1c0,7.082,5.74,12.822,12.821,12.822H342.11c7.081,0,12.821-5.74,12.821-12.822V148.678
	C354.931,145.277,353.58,142.016,351.176,139.612z"/>
<path style="fill:#FFFFFF;" d="M310.065,212.47H141.231c-6.129,0-11.098,4.969-11.098,11.098v88.637
	c0,6.129,4.969,11.098,11.098,11.098h168.833c6.129,0,11.098-4.969,11.098-11.098v-88.637
	C321.162,217.439,316.194,212.47,310.065,212.47z"/>
<g>
	<rect x="149.565" y="233.626" style="fill:#EBF0F3;" width="152.177" height="9.4"/>
	<rect x="149.565" y="263.168" style="fill:#EBF0F3;" width="152.177" height="9.4"/>
	<rect x="149.565" y="292.762" style="fill:#EBF0F3;" width="152.177" height="9.4"/>
	<path style="fill:#EBF0F3;" d="M156.714,96.355v58.059c0,5.443,4.413,9.856,9.856,9.856h118.156c5.443,0,9.856-4.413,9.856-9.856
		V96.355H156.714z"/>
</g>
<rect x="259.491" y="107.622" style="fill:#3A556A;" width="15.698" height="44.022"/>
</svg>