<?xml version="1.0" encoding="UTF-8" standalone="no"?>
<!-- Created with Inkscape (http://www.inkscape.org/) -->

<svg
   width="110mm"
   height="110mm"
   viewBox="0 0 110 110"
   version="1.1"
   id="svg1"
   inkscape:version="1.3.2 (091e20e, 2023-11-25, custom)"
   sodipodi:docname="logo.svg"
   xmlns:inkscape="http://www.inkscape.org/namespaces/inkscape"
   xmlns:sodipodi="http://sodipodi.sourceforge.net/DTD/sodipodi-0.dtd"
   xmlns="http://www.w3.org/2000/svg"
   xmlns:svg="http://www.w3.org/2000/svg">
  <sodipodi:namedview
     id="namedview1"
     pagecolor="#ffffff"
     bordercolor="#666666"
     borderopacity="1.0"
     inkscape:showpageshadow="2"
     inkscape:pageopacity="0.0"
     inkscape:pagecheckerboard="0"
     inkscape:deskcolor="#d1d1d1"
     inkscape:document-units="mm"
     inkscape:zoom="1.5094668"
     inkscape:cx="239.48854"
     inkscape:cy="224.25137"
     inkscape:window-width="1845"
     inkscape:window-height="1177"
     inkscape:window-x="67"
     inkscape:window-y="-8"
     inkscape:window-maximized="1"
     inkscape:current-layer="layer1" />
  <defs
     id="defs1">
    <clipPath
       clipPathUnits="userSpaceOnUse"
       id="clipPath3">
      <path
         d="m 43.67415,36 h 292.1385 V 373.0231 H 43.67415 Z"
         id="path3" />
    </clipPath>
    <clipPath
       clipPathUnits="userSpaceOnUse"
       id="clipPath6">
      <path
         d="M 103.1833,160.3015 H 276.3036 V 333.1676 H 103.1833 Z"
         id="path6" />
    </clipPath>
    <clipPath
       clipPathUnits="userSpaceOnUse"
       id="clipPath4">
      <path
         d="m 30.58496,104.8265 h 318.3169 v 62.83008 H 30.58496 Z"
         transform="matrix(1,0,0,-1,-55.218022,122.8352)"
         id="path4" />
    </clipPath>
    <clipPath
       clipPathUnits="userSpaceOnUse"
       id="clipPath6-4">
      <path
         d="M 103.1833,160.3015 H 276.3036 V 333.1676 H 103.1833 Z"
         id="path6-6" />
    </clipPath>
    <clipPath
       clipPathUnits="userSpaceOnUse"
       id="clipPath8">
      <path
         d="m 133.9791,215.3656 h 38.56258 v 6.17821 H 133.9791 Z"
         id="path8" />
    </clipPath>
    <clipPath
       clipPathUnits="userSpaceOnUse"
       id="clipPath10">
      <path
         d="m 145.2189,225.6175 h 38.56258 v 6.1782 H 145.2189 Z"
         id="path10" />
    </clipPath>
    <clipPath
       clipPathUnits="userSpaceOnUse"
       id="clipPath12">
      <path
         d="m 133.2583,235.8695 h 38.56258 v 6.1782 H 133.2583 Z"
         id="path12" />
    </clipPath>
    <clipPath
       clipPathUnits="userSpaceOnUse"
       id="clipPath14">
      <path
         d="m 217.5832,271.6178 h 37.70824 v 5.33722 H 217.5832 Z"
         id="path14" />
    </clipPath>
    <clipPath
       clipPathUnits="userSpaceOnUse"
       id="clipPath16">
      <path
         d="m 207.7984,279.4803 h 37.70825 v 5.33722 H 207.7984 Z"
         id="path16" />
    </clipPath>
    <clipPath
       clipPathUnits="userSpaceOnUse"
       id="clipPath18">
      <path
         d="m 217.7433,287.3828 h 37.7216 v 5.33722 h -37.7216 z"
         id="path18" />
    </clipPath>
    <clipPath
       clipPathUnits="userSpaceOnUse"
       id="clipPath20">
      <path
         d="m 166.4837,315.1485 h 31.47433 v 4.48289 H 166.4837 Z"
         id="path20" />
    </clipPath>
    <clipPath
       clipPathUnits="userSpaceOnUse"
       id="clipPath22">
      <path
         d="m 173.959,320.8751 h 31.47433 v 4.46954 H 173.959 Z"
         id="path22" />
    </clipPath>
  </defs>
  <g
     inkscape:label="Layer 1"
     inkscape:groupmode="layer"
     id="layer1">
    <path
       id="path2"
       d="M 189.7434,372.0231 334.8127,288.2673 V 120.7558 L 189.7434,37 44.67415,120.7558 v 167.5115 z"
       style="fill:#73e5d1;fill-opacity:1;fill-rule:nonzero;stroke:none;stroke-width:1.00622"
       transform="matrix(0.37694313,0,0,-0.32609478,-16.375601,121.87806)"
       clip-path="url(#clipPath3)" />
    <g
       id="g1">
      <g
         id="g4"
         transform="matrix(0.26458333,0,0,0.26458333,-12.902224,-18.62654)"
         style="fill:#4850ff;fill-opacity:1">
        <path
           style="font-weight:bold;font-size:36px;font-family:ArialRoundedMTBold"
           d="m 26.806641,0 h -6.75 V -11.53125 H 10.089844 V 0 H 3.3398438 v -26.173828 h 6.7500002 v 9.580078 h 9.966797 v -9.580078 h 6.75 z m 12.44655,-6.9785156 4.5,-12.7617184 h 6.503906 L 39.288347,7.2421875 h -6.855469 l 3.128907,-7.3828125 -7.681641,-19.599609 h 6.644531 z M 68.573193,0 h -6.328125 v -2.0566406 q -1.634766,1.33593748 -3.058594,1.96874998 -1.423828,0.63281249 -3.28711,0.63281249 -3.603515,0 -5.765625,-2.77734377 -2.162109,-2.7773437 -2.162109,-7.4882812 0,-2.5136719 0.720703,-4.4472659 0.738281,-1.951172 2.003906,-3.339843 1.195313,-1.31836 2.900391,-2.039063 1.705078,-0.738281 3.410156,-0.738281 1.775391,0 2.900391,0.386719 1.142578,0.36914 2.337891,0.949218 v -8.402343 h 6.328125 z m -6.328125,-5.4492187 v -9.6855473 q -0.667969,-0.28125 -1.40625,-0.404297 -0.738282,-0.123046 -1.353516,-0.123046 -2.496094,0 -3.744141,1.564453 -1.248047,1.546875 -1.248047,4.3066404 0,2.9003906 1.001954,4.21875 1.001953,1.3007812 3.216796,1.3007812 0.861329,0 1.828125,-0.3164062 0.966797,-0.3339844 1.705079,-0.8613281 z m 23.94141,-8.2617193 h -0.5625 q -0.404297,-0.140625 -1.300782,-0.210937 -0.896484,-0.07031 -1.49414,-0.07031 -1.353516,0 -2.390625,0.175782 -1.03711,0.175781 -2.232422,0.597656 V 0 h -6.328125 v -19.740234 h 6.328125 v 2.90039 q 2.091797,-1.792968 3.638672,-2.373047 1.546875,-0.597656 2.847656,-0.597656 0.333984,0 0.755859,0.01758 0.421875,0.01758 0.738282,0.05273 z m 20.267492,3.8496099 q 0,4.8691406 -2.84765,7.6816406 -2.83008,2.79492187 -7.962895,2.79492187 -5.132813,0 -7.980469,-2.79492187 -2.830078,-2.8125 -2.830078,-7.6816406 0,-4.9042969 2.847656,-7.6992189 2.865235,-2.794922 7.962891,-2.794922 5.167965,0 7.980465,2.8125 2.83008,2.8125 2.83008,7.6816409 z M 98.666862,-5.0625 q 0.615235,-0.7558594 0.914063,-1.8105469 0.316406,-1.0722656 0.316406,-2.953125 0,-1.7402341 -0.316406,-2.9179691 -0.316406,-1.177734 -0.878906,-1.880859 -0.5625,-0.720703 -1.353516,-1.019531 -0.791016,-0.298828 -1.705078,-0.298828 -0.914063,0 -1.634766,0.246093 -0.703125,0.246094 -1.353515,0.984375 -0.580078,0.685547 -0.931641,1.88086 -0.333984,1.195312 -0.333984,3.0058591 0,1.6171875 0.298828,2.8125 0.298828,1.1777344 0.878906,1.8984375 0.5625,0.6855469 1.335938,1.0019532 0.791015,0.3164062 1.792968,0.3164062 0.861328,0 1.634766,-0.28125 0.791016,-0.2988281 1.335937,-0.984375 z M 127.30148,0 h -18.93164 v -26.173828 h 18.93164 v 5.0625 h -12.21679 v 4.517578 h 11.33789 v 5.0625 h -11.33789 v 6.46875 h 12.21679 z m 15.01201,0.52734375 q -2.58398,0 -4.72851,-0.61523437 -2.12696,-0.61523438 -3.70899,-1.89843748 -1.56445,-1.2832032 -2.42578,-3.234375 -0.86133,-1.9511719 -0.86133,-4.5703125 0,-2.7597654 0.91406,-4.7636724 0.93165,-2.003906 2.58399,-3.322265 1.59961,-1.248047 3.69141,-1.828125 2.09179,-0.580078 4.34179,-0.580078 2.02149,0 3.72656,0.439453 1.70508,0.439453 3.18165,1.142578 v 5.396484 h -0.89649 q -0.36914,-0.316406 -0.89648,-0.738281 -0.50977,-0.421875 -1.26563,-0.826172 -0.7207,-0.386719 -1.58203,-0.632812 -0.86133,-0.263672 -2.00391,-0.263672 -2.53125,0 -3.90234,1.617187 -1.35352,1.59961 -1.35352,4.3593754 0,2.8476562 1.38868,4.3242187 1.40625,1.4765625 3.97265,1.4765625 1.19532,0 2.14453,-0.2636718 0.9668,-0.28125 1.59961,-0.6503907 0.59766,-0.3515625 1.05469,-0.7382812 0.45703,-0.3867188 0.84375,-0.7558594 h 0.89649 v 5.3964844 q -1.49415,0.70312497 -3.12891,1.10742185 -1.61719,0.421875 -3.58594,0.421875 z M 173.60117,-9.8613281 q 0,4.8691406 -2.84766,7.6816406 -2.83008,2.79492187 -7.96289,2.79492187 -5.13281,0 -7.98047,-2.79492187 -2.83008,-2.8125 -2.83008,-7.6816406 0,-4.9042969 2.84766,-7.6992189 2.86523,-2.794922 7.96289,-2.794922 5.16797,0 7.98047,2.8125 2.83008,2.8125 2.83008,7.6816409 z M 165.81406,-5.0625 q 0.61523,-0.7558594 0.91406,-1.8105469 0.31641,-1.0722656 0.31641,-2.953125 0,-1.7402341 -0.31641,-2.9179691 -0.31641,-1.177734 -0.87891,-1.880859 -0.5625,-0.720703 -1.35351,-1.019531 -0.79102,-0.298828 -1.70508,-0.298828 -0.91406,0 -1.63477,0.246093 -0.70312,0.246094 -1.35351,0.984375 -0.58008,0.685547 -0.93164,1.88086 -0.33399,1.195312 -0.33399,3.0058591 0,1.6171875 0.29883,2.8125 0.29883,1.1777344 0.87891,1.8984375 0.5625,0.6855469 1.33593,1.0019532 0.79102,0.3164062 1.79297,0.3164062 0.86133,0 1.63477,-0.28125 0.79101,-0.2988281 1.33594,-0.984375 z M 194.39595,0 h -18.87891 v -26.173828 h 6.75 V -5.0625 h 12.12891 z m 22.44663,-8.2265625 q 0,3.8671875 -3.28711,6.2929688 -3.26954,2.40820308 -8.89454,2.40820308 -3.25195,0 -5.67773,-0.5625 -2.4082,-0.58007813 -4.51758,-1.45898438 v -6.2753906 h 0.73828 q 2.0918,1.6699219 4.67578,2.5664062 2.60157,0.8964844 4.99219,0.8964844 0.61524,0 1.61719,-0.1054687 1.00195,-0.1054688 1.63477,-0.3515625 0.77343,-0.3164063 1.26562,-0.7910157 0.50977,-0.4746093 0.50977,-1.40625 0,-0.8613281 -0.73829,-1.4765625 -0.7207,-0.6328125 -2.12695,-0.9667969 -1.47656,-0.3515625 -3.1289,-0.6503907 -1.63477,-0.316406 -3.07618,-0.791016 -3.30468,-1.072265 -4.76367,-2.90039 -1.4414,-1.845703 -1.4414,-4.570313 0,-3.65625 3.26953,-5.958984 3.28711,-2.320312 8.4375,-2.320312 2.58398,0 5.09765,0.509765 2.53125,0.492188 4.37696,1.248047 v 6.029297 h -0.72071 q -1.58203,-1.265625 -3.88476,-2.109375 -2.28516,-0.861328 -4.67578,-0.861328 -0.84375,0 -1.6875,0.123047 -0.82618,0.105468 -1.59961,0.421875 -0.68555,0.263672 -1.17774,0.808593 -0.49219,0.527344 -0.49219,1.212891 0,1.037109 0.79102,1.599609 0.79102,0.544922 2.98828,1.001954 1.44141,0.298828 2.75977,0.580078 1.33593,0.28125 2.86523,0.773437 3.00586,0.984375 4.42969,2.689453 1.44141,1.6875 1.44141,4.3945315 z m 23.53738,-12.8847655 h -8.17383 V 0 h -6.75 v -21.111328 h -8.17383 v -5.0625 h 23.09766 z M 269.8409,0 h -6.71485 v -17.525391 l -4.85156,11.3730473 h -4.6582 L 248.76472,-17.525391 V 0 h -6.36328 v -26.173828 h 7.83985 l 5.88867,13.130859 5.87109,-13.130859 h 7.83985 z"
           id="text4"
           clip-path="url(#clipPath4)"
           transform="matrix(1.3333333,0,0,1.3333333,73.624027,381.58387)"
           aria-label="HydroEcoLSTM"
           sodipodi:insensitive="true" />
      </g>
    </g>
    <g
       id="g5"
       transform="matrix(0.26458333,0,0,0.26458333,-11.468051,-17.904512)"
       style="fill:#4850ff;fill-opacity:1"
       sodipodi:insensitive="true">
      <path
         id="path5"
         d="m 243.5189,321.3545 c 9.0128,-16.5738 -44.895,-24.8956 -49.5511,-37.9241 -4.6561,-13.0285 46.4808,-18.846 74.6737,-46.4408 19.0945,-18.7524 -7.0509,-40.4498 -25.8034,-52.5812 -12.4731,-8.0733 -26.356,-17.4257 -33.5324,-23.1069 H 104.1833 c -1e-4,1e-4 2.5683,11.488 29.1806,28.8736 26.6125,17.3856 56.941,20.8857 64.929,35.7082 7.9878,14.8225 -38.2793,29.6933 -47.3352,40.5005 -9.0558,10.8073 -0.0427,28.4063 24.1348,38.0177 22.6397,8.9705 50.6995,12.2124 46.0003,18.0209 -5.4258,6.75 -29.8598,7.8676 -36.309,9.0639 -0.3846,0.0426 -0.2911,0.6807 0.0935,0.6808 12.9853,-1e-4 52.5758,0.251 58.6416,-10.8126 z"
         style="fill:#4850ff;fill-opacity:1;fill-rule:nonzero;stroke:none"
         transform="matrix(1.3333333,0,0,-1.3333333,0,545.36413)"
         clip-path="url(#clipPath6-4)" />
    </g>
    <g
       id="g6"
       transform="matrix(0.26458333,0,0,0.26458333,-11.468051,-17.904512)"
       style="fill:#4850ff;fill-opacity:1"
       sodipodi:insensitive="true">
      <path
         id="path7"
         d="m 171.5417,218.4613 c -4e-4,-1.1533 -0.9291,-2.0957 -2.0824,-2.0957 h -32.3844 c -1.1534,0 -2.0957,0.9424 -2.0958,2.0957 1e-4,1.1533 0.9425,2.0821 2.0958,2.0825 h 32.3844 c 1.1532,-4e-4 2.082,-0.9291 2.0824,-2.0825 z"
         style="fill:#4850ff;fill-opacity:1;fill-rule:nonzero;stroke:none"
         transform="matrix(1.3333333,0,0,-1.3333333,0,545.36413)"
         clip-path="url(#clipPath8)" />
    </g>
    <g
       id="g8"
       transform="matrix(0.26458333,0,0,0.26458333,-11.468051,-17.904512)"
       style="fill:#4850ff;fill-opacity:1"
       sodipodi:insensitive="true">
      <path
         id="path9"
         d="m 182.7815,228.7133 c -1e-4,-1.1534 -0.9425,-2.0957 -2.0958,-2.0958 h -32.371 c -1.1534,1e-4 -2.0957,0.9425 -2.0958,2.0958 1e-4,1.1532 0.9424,2.082 2.0958,2.0824 h 32.371 c 1.1534,-4e-4 2.0957,-0.9291 2.0958,-2.0824 z"
         style="fill:#4850ff;fill-opacity:1;fill-rule:nonzero;stroke:none"
         transform="matrix(1.3333333,0,0,-1.3333333,0,545.36413)"
         clip-path="url(#clipPath10)" />
    </g>
    <g
       id="g10"
       transform="matrix(0.26458333,0,0,0.26458333,-11.468051,-17.904512)"
       style="fill:#4850ff;fill-opacity:1"
       sodipodi:insensitive="true">
      <path
         id="path11"
         d="m 170.8209,238.9653 c -1e-4,-1.1534 -0.9425,-2.0957 -2.0958,-2.0958 h -32.371 c -1.1534,1e-4 -2.0957,0.9424 -2.0958,2.0958 1e-4,1.1532 0.9424,2.082 2.0958,2.0824 h 32.371 c 1.1534,-4e-4 2.0957,-0.9291 2.0958,-2.0824 z"
         style="fill:#4850ff;fill-opacity:1;fill-rule:nonzero;stroke:none"
         transform="matrix(1.3333333,0,0,-1.3333333,0,545.36413)"
         clip-path="url(#clipPath12)" />
    </g>
    <g
       id="g12"
       transform="matrix(0.26458333,0,0,0.26458333,-11.468051,-17.904512)"
       style="fill:#4850ff;fill-opacity:1"
       sodipodi:insensitive="true">
      <path
         id="path13"
         d="m 254.2914,274.2864 c 4e-4,-0.9396 -0.7286,-1.669 -1.6686,-1.6686 h -32.3844 c -0.9394,-4e-4 -1.6552,0.7287 -1.6552,1.6686 0,0.9396 0.7153,1.6689 1.6552,1.6686 h 32.3844 c 0.9396,3e-4 1.669,-0.7287 1.6686,-1.6686 z"
         style="fill:#4850ff;fill-opacity:1;fill-rule:nonzero;stroke:none"
         transform="matrix(1.3333333,0,0,-1.3333333,0,545.36413)"
         clip-path="url(#clipPath14)" />
    </g>
    <g
       id="g14"
       transform="matrix(0.26458333,0,0,0.26458333,-11.468051,-17.904512)"
       style="fill:#4850ff;fill-opacity:1"
       sodipodi:insensitive="true">
      <path
         id="path15"
         d="m 244.5067,282.1489 c 3e-4,-0.8976 -0.7717,-1.669 -1.6686,-1.6686 H 210.467 c -0.9396,-4e-4 -1.6689,0.7286 -1.6686,1.6686 -3e-4,0.9396 0.7287,1.6689 1.6686,1.6686 h 32.3711 c 0.9396,3e-4 1.6689,-0.7287 1.6686,-1.6686 z"
         style="fill:#4850ff;fill-opacity:1;fill-rule:nonzero;stroke:none"
         transform="matrix(1.3333333,0,0,-1.3333333,0,545.36413)"
         clip-path="url(#clipPath16)" />
    </g>
    <g
       id="g16"
       transform="matrix(0.26458333,0,0,0.26458333,-11.468051,-17.904512)"
       style="fill:#4850ff;fill-opacity:1"
       sodipodi:insensitive="true">
      <path
         id="path17"
         d="m 254.465,290.0514 c 3e-4,-0.9396 -0.7287,-1.6689 -1.6687,-1.6686 H 220.412 c -0.9396,-3e-4 -1.669,0.7287 -1.6687,1.6686 -3e-4,0.9396 0.7717,1.669 1.6687,1.6686 h 32.3843 c 0.9396,4e-4 1.669,-0.7287 1.6687,-1.6686 z"
         style="fill:#4850ff;fill-opacity:1;fill-rule:nonzero;stroke:none"
         transform="matrix(1.3333333,0,0,-1.3333333,0,545.36413)"
         clip-path="url(#clipPath18)" />
    </g>
    <g
       id="g18"
       transform="matrix(0.26458333,0,0,0.26458333,-11.468051,-17.904512)"
       style="fill:#4850ff;fill-opacity:1"
       sodipodi:insensitive="true">
      <path
         id="path19"
         d="m 196.958,317.3899 c 4e-4,-0.6838 -0.5445,-1.2412 -1.2281,-1.2414 h -27.0048 c -0.6838,2e-4 -1.2412,0.5583 -1.2414,1.2414 2e-4,0.6838 0.5583,1.2412 1.2414,1.2415 h 27.0048 c 0.6837,-3e-4 1.2275,-0.5584 1.2281,-1.2415 z"
         style="fill:#4850ff;fill-opacity:1;fill-rule:nonzero;stroke:none"
         transform="matrix(1.3333333,0,0,-1.3333333,0,545.36413)"
         clip-path="url(#clipPath20)" />
    </g>
    <g
       id="g20"
       transform="matrix(0.26458333,0,0,0.26458333,-11.468051,-17.904512)"
       style="fill:#4850ff;fill-opacity:1"
       sodipodi:insensitive="true">
      <path
         id="path21"
         d="m 204.4334,323.1166 c 4e-4,-0.6838 -0.5446,-1.2412 -1.2281,-1.2415 h -27.0048 c -0.6839,3e-4 -1.2412,0.5584 -1.2415,1.2415 3e-4,0.6836 0.5584,1.2275 1.2415,1.2281 h 27.0048 c 0.6836,4e-4 1.2275,-0.5445 1.2281,-1.2281 z"
         style="fill:#4850ff;fill-opacity:1;fill-rule:nonzero;stroke:none"
         transform="matrix(1.3333333,0,0,-1.3333333,0,545.36413)"
         clip-path="url(#clipPath22)" />
    </g>
  </g>
</svg>
